<svg viewBox="0 0 24 24" fill="none"
  xmlns="http://www.w3.org/2000/svg">
  <path d="M12 2C6.48 2 2 6.48 2 12C2 17.52 6.48 22 12 22C17.52 22 22 17.52 22 12C22 6.48 17.52 2 12 2ZM12 20C7.59 20 4 16.41 4 12C4 7.59 7.59 4 12 4C16.41 4 20 7.59 20 12C20 16.41 16.41 20 12 20Z" fill="white" />
  <path d="M12 11C11.4477 11 11 11.4477 11 12C11 12.5523 11.4477 13 12 13C12.5523 13 13 12.5523 13 12C13 11.4477 12.5523 11 12 11Z" fill="white" />
  <path d="M12 6C8.69 6 6 8.69 6 12H4C4 7.58 7.58 4 12 4V6Z" fill="white" />
  <path d="M12 18C15.31 18 18 15.31 18 12H20C20 16.42 16.42 20 12 20V18Z" fill="white" />
</svg>