<!--?xml version="1.0" encoding="utf-8"?-->
<!-- Svg Vector Icons : http://www.onlinewebfonts.com/icon -->

<svg version="1.1"
  xmlns="http://www.w3.org/2000/svg"
  xmlns:xlink="http://www.w3.org/1999/xlink" x="0px" y="0px" viewBox="0 0 256 256" enable-background="new 0 0 256 256" xml:space="preserve">
  <metadata> Svg Vector Icons : http://www.onlinewebfonts.com/icon </metadata>
  <g>
    <g>
      <path fill="#fffdfd" data-title="Layer 0" xs="0" d="M240.9,128c-2.2,0-4,1.8-4,4v81.7c0,13-10,23.6-22.3,23.6H40.4c-12.3,0-22.3-10.6-22.3-23.6V42.2c0-13,10-23.6,22.3-23.6h84.3c2.2,0,4-1.8,4-4s-1.8-4-4-4H40.4C23.7,10.5,10,24.7,10,42.2v171.6c0,17.5,13.7,31.7,30.4,31.7h174.1c16.8,0,30.4-14.2,30.4-31.7v-81.7C245,129.8,243.2,128,240.9,128z"/>
      <path fill="#ffffff" data-title="Layer 1" xs="1" d="M178,42.3l-107,107c0,0,0,0.1-0.1,0.1c-0.2,0.2-0.3,0.4-0.5,0.7c-0.1,0.2-0.3,0.4-0.4,0.7c0,0,0,0.1-0.1,0.1l-15.3,45.8c0,0.1,0,0.3,0,0.5c0,0.3-0.1,0.5-0.1,0.8c0,0.3,0,0.6,0.1,0.8c0,0.1,0,0.3,0,0.5c0,0.1,0.1,0.2,0.1,0.3c0.1,0.2,0.1,0.3,0.2,0.5c0.2,0.3,0.4,0.5,0.6,0.7c0.1,0.1,0.2,0.2,0.3,0.3c0.3,0.3,0.7,0.5,1.2,0.6c0,0,0,0,0.1,0h0c0.4,0.1,0.8,0.2,1.3,0.2s0.9-0.1,1.3-0.2h0l45.8-15.3c0,0,0.1,0,0.1-0.1c0.3-0.1,0.5-0.3,0.7-0.4c0.2-0.1,0.5-0.3,0.7-0.4c0,0,0.1,0,0.1-0.1l107-106.9l0,0l0,0L244.8,48c1.6-1.6,1.6-4.1,0-5.7l-30.5-30.6c-1.6-1.6-4.1-1.6-5.7,0L178,42.3C178,42.2,178,42.2,178,42.3L178,42.3z M211.4,20.3l24.8,24.8l-24.8,24.8l-24.8-24.8L211.4,20.3z M205.7,75.7L102.3,179.1L65,191.5l12.4-37.2L180.8,50.8L205.7,75.7z"/>
    </g>
  </g>
</svg>