<svg viewBox="0 0 24 24" fill="none"
  xmlns="http://www.w3.org/2000/svg">
  <path fillRule="evenodd" clipRule="evenodd" d="M11.4 3.6C11.7 3.5 12.1 3.5 12.6 3.5C13.1 3.5 13.5 3.5 13.8 3.6L14.5 6.5C14.9 6.6 15.3 6.8 15.7 7L18.3 5.7C18.8 6 19.2 6.4 19.6 6.8C20 7.2 20.3 7.6 20.6 8.1L19.3 10.7C19.5 11.1 19.7 11.5 19.8 11.9L22.7 12.6C22.8 12.9 22.8 13.3 22.8 13.8C22.8 14.3 22.8 14.7 22.7 15L19.8 15.7C19.7 16.1 19.5 16.5 19.3 16.9L20.6 19.5C20.3 20 20 20.4 19.6 20.8C19.2 21.2 18.8 21.5 18.3 21.8L15.7 20.5C15.3 20.7 14.9 20.9 14.5 21L13.8 23.9C13.5 24 13.1 24 12.6 24C12.1 24 11.7 24 11.4 23.9L10.7 21C10.3 20.9 9.9 20.7 9.5 20.5L6.9 21.8C6.4 21.5 6 21.2 5.6 20.8C5.2 20.4 4.9 20 4.6 19.5L5.9 16.9C5.7 16.5 5.5 16.1 5.4 15.7L2.5 15C2.4 14.7 2.4 14.3 2.4 13.8C2.4 13.3 2.4 12.9 2.5 12.6L5.4 11.9C5.5 11.5 5.7 11.1 5.9 10.7L4.6 8.1C4.9 7.6 5.2 7.2 5.6 6.8C6 6.4 6.4 6 6.9 5.7L9.5 7C9.9 6.8 10.3 6.6 10.7 6.5L11.4 3.6ZM12.6 15.8C13.7046 15.8 14.6 14.9046 14.6 13.8C14.6 12.6954 13.7046 11.8 12.6 11.8C11.4954 11.8 10.6 12.6954 10.6 13.8C10.6 14.9046 11.4954 15.8 12.6 15.8Z" fill="white" />
</svg>